# xmcd CD database file
#
# Track frame offsets:
#	150
#	22525
#	43500
#	78850
#	98700
#	116777
#	132750
#	152850
#	190875
#	211325
#
# Disc length: 3438 seconds
#
# Revision: 0
# Processed by: cddbd v1.5.1PL2 Copyright (c) Steve Scherf et al.
# Submitted via: CDex 1.51
#
DISCID=740d6c0a
DTITLE=Günter Lenz - Majorleague
DYEAR=1992
DGENRE=Jazz
TTITLE0=Majorleague
TTITLE1=Got no time
TTITLE2=Bluesarna
TTITLE3=Floating open time
TTITLE4=Der Standpunkt im Schnittpunkt
TTITLE5=Subtone bells
TTITLE6=Heavy petal
TTITLE7=Sphings
TTITLE8=Back to the earth
TTITLE9=Im Tschad
EXTD=YEAR: 1992
EXTT0=
EXTT1=
EXTT2=
EXTT3=
EXTT4=
EXTT5=
EXTT6=
EXTT7=
EXTT8=
EXTT9=
PLAYORDER=
